<svg width="140" height="45" viewBox="0 0 140 45" fill="none" xmlns="http://www.w3.org/2000/svg">
<g clip-path="url(#clip0_1_21424)">
<rect width="139.67" height="45" fill="#004C8F"/>
<rect width="38.7736" height="45" fill="#ED232A"/>
<path d="M54.6982 28.2733C53.9918 29.0511 53.1703 29.6385 52.2337 30.0353C51.305 30.4242 50.2653 30.6187 49.1144 30.6187C46.5506 30.6187 44.3996 29.7496 42.6614 28.0113C40.9311 26.2731 40.0659 24.1022 40.0659 21.4988C40.0659 18.8399 40.9231 16.6571 42.6376 14.9506C44.36 13.2362 46.5705 12.379 49.2691 12.379C50.3248 12.379 51.2812 12.5258 52.1384 12.8195C52.9957 13.1052 53.6941 13.5179 54.2339 14.0577V12.7123H56.8174V18.57H54.2339C53.7656 17.4985 53.1187 16.6968 52.2932 16.165C51.4677 15.6253 50.4756 15.3554 49.3168 15.3554C47.5229 15.3554 46.0903 15.915 45.0187 17.0341C43.9472 18.1533 43.4115 19.6415 43.4115 21.4988C43.4115 23.2768 43.9671 24.7452 45.0783 25.904C46.1895 27.0628 47.5864 27.6422 49.2691 27.6422C50.4518 27.6422 51.4677 27.3962 52.317 26.9041C53.1743 26.404 53.9204 25.6262 54.5553 24.5705H50.5312V22.0346H58.9248V24.5705H57.0913V30.2734H54.7934L54.6982 28.2733ZM65.2349 27.8327H67.3303V30.2734H60.2582V27.8327H62.1394V15.153H60.2582V12.7123H67.0922L70.5449 22.7847L74.0333 12.7123H80.6172V15.153H78.748V27.8327H80.6172V30.2734H73.5451V27.8327H75.6406V15.9626L71.3069 27.928H69.6281L65.2349 15.9626V27.8327ZM84.7605 24.5944C84.7605 25.5865 85.0819 26.4159 85.7248 27.0827C86.3677 27.7494 87.1615 28.0828 88.106 28.0828C89.0505 28.0828 89.8403 27.7534 90.4753 27.0946C91.1182 26.4279 91.4396 25.5944 91.4396 24.5944C91.4396 23.5704 91.1221 22.7291 90.4872 22.0703C89.8522 21.4115 89.0585 21.0821 88.106 21.0821C87.1535 21.0821 86.3558 21.4155 85.7129 22.0822C85.0779 22.741 84.7605 23.5784 84.7605 24.5944ZM81.8316 24.5944C81.8316 22.9117 82.4309 21.4988 83.6294 20.3559C84.8279 19.2129 86.3201 18.6414 88.106 18.6414C89.8919 18.6414 91.3801 19.2129 92.5707 20.3559C93.7692 21.4988 94.3685 22.9117 94.3685 24.5944C94.3685 26.2691 93.7732 27.674 92.5826 28.809C91.392 29.944 89.8998 30.5116 88.106 30.5116C86.3201 30.5116 84.8279 29.944 83.6294 28.809C82.4309 27.674 81.8316 26.2691 81.8316 24.5944ZM100.107 20.4749C100.782 19.832 101.437 19.3677 102.072 19.0819C102.714 18.7883 103.393 18.6414 104.107 18.6414C105.306 18.6414 106.195 18.9669 106.774 19.6177C107.354 20.2606 107.643 21.2528 107.643 22.5942V27.9042H109.227V30.2734H103.226V27.9042H104.81V23.2252C104.81 22.6219 104.655 22.1576 104.346 21.8322C104.044 21.5068 103.607 21.3441 103.036 21.3441C102.52 21.3441 102.02 21.483 101.536 21.7608C101.06 22.0306 100.583 22.4473 100.107 23.0109V27.9042H101.691V30.2734H95.69V27.9042H97.2735V21.2964H95.69V18.9391H100.107V20.4749ZM113.144 23.4514H119.728C119.498 22.6656 119.105 22.0703 118.549 21.6655C118.002 21.2607 117.315 21.0583 116.49 21.0583C115.632 21.0583 114.906 21.2687 114.311 21.6893C113.723 22.11 113.334 22.6974 113.144 23.4514ZM122.216 26.9279C121.883 28.0867 121.22 28.9836 120.228 29.6186C119.236 30.2536 117.998 30.5711 116.513 30.5711C114.632 30.5711 113.116 30.0234 111.965 28.9281C110.814 27.8327 110.239 26.3961 110.239 24.6182C110.239 22.8799 110.822 21.4552 111.989 20.344C113.164 19.2248 114.664 18.6652 116.49 18.6652C118.307 18.6652 119.768 19.2566 120.871 20.4392C121.974 21.6139 122.526 23.1855 122.526 25.1539V25.4397H113.144C113.239 26.3128 113.584 26.9835 114.18 27.4518C114.775 27.92 115.577 28.1542 116.585 28.1542C117.212 28.1542 117.775 28.047 118.275 27.8327C118.775 27.6184 119.16 27.3168 119.43 26.9279H122.216ZM131.669 35.3453H125.3V32.9761H127.086L128.574 29.9758L124.788 21.2964H123.371V18.9391H129.157V21.2964H127.645L130.086 27.1303L132.622 21.2964H131.158V18.9391H136.837V21.2964H135.444L129.884 32.9761H131.669V35.3453Z" fill="white"/>
<path d="M15.7947 20.5606C17.6093 17.4448 20.1232 14.9988 23.0501 13.0013C24.1773 12.2312 25.4814 11.706 26.7443 11.169C27.175 10.986 27.7475 11.0126 28.2254 11.107C29.2286 11.2988 29.7096 12.3492 29.0634 13.1281C28.4202 13.9041 27.6058 14.6093 26.7354 15.1139C24.4104 16.4623 22.2623 17.9936 20.6631 20.2095C18.7984 22.7972 18.1994 25.6651 18.937 28.775C19.6157 31.6282 21.6693 33.4251 24.5549 33.6553C28.3936 33.9651 31.5832 32.6845 33.8876 29.4714C34.3213 28.8665 34.6341 28.1761 35.0944 27.3617C35.0413 27.819 35.0265 28.1229 34.9705 28.418C34.1266 32.8232 32.1055 36.4377 28.1281 38.7067C25.6939 40.0934 23.0236 40.5449 20.2737 40.5744C16.9985 40.6098 13.8709 39.9311 10.938 38.4352C6.22007 36.0275 3.71504 32.0767 3.10722 26.8394C2.44924 21.1596 4.24614 16.1377 7.23507 11.4552C7.59799 10.8857 8.08188 10.3752 8.58643 9.92381C8.93165 9.614 9.38604 9.34845 9.83452 9.23928C10.9262 8.97668 11.6019 9.64646 11.2803 10.7264C11.0384 11.5378 10.6164 12.3108 10.1915 13.0514C9.25326 14.6801 8.20876 16.2498 7.9137 18.1677C7.9078 18.212 7.9137 18.2562 8.04058 18.4362C8.1704 18.2975 8.36219 18.1825 8.4153 18.0202C9.87583 13.6091 12.3455 9.82644 15.5144 6.50409C16.2137 5.7694 17.1136 5.18519 18.0106 4.7131C18.4738 4.4682 19.1731 4.49475 19.7101 4.62458C20.4861 4.81342 20.8372 5.52745 20.4625 6.22969C20.017 7.07355 19.4504 7.88791 18.7984 8.5813C16.7005 10.8119 14.8357 13.2019 13.4814 15.9636C13.0831 16.775 12.7851 17.6366 12.4576 18.4805C12.3897 18.6575 12.3986 18.8611 12.5195 19.0912C12.5786 19.0145 12.6641 18.9496 12.6936 18.864C13.8444 15.5889 15.954 12.9688 18.2879 10.5051C19.8104 8.89701 21.4775 7.45713 23.4573 6.44803C24.3012 6.01725 25.1893 5.67793 26.1719 5.86087C27.5675 6.12052 28.1015 7.41287 27.1632 8.47508C26.52 9.20387 25.7234 9.83824 24.8943 10.3546C21.5631 12.4259 18.6213 14.8926 16.6208 18.3565C16.2343 19.0293 15.9422 19.761 15.6058 20.4662C15.6678 20.4957 15.7298 20.5252 15.7917 20.5577" fill="white"/>
<path d="M29.9632 30.9725C30.2789 30.2171 30.5858 29.627 30.7776 29.0015C31.1847 27.6796 30.6654 27.0069 29.2993 27.0158C28.1368 27.0246 26.9772 27.0541 25.8176 27.0512C25.4282 27.0512 25.0239 27.0187 24.6463 26.9243C23.8732 26.7295 23.2742 26.287 23.1238 25.4519C22.9644 24.5727 23.1326 23.7465 23.9263 23.2213C24.3188 22.9587 24.782 22.7256 25.2393 22.6578C27.3755 22.342 29.5236 22.2919 31.6391 22.7905C34.4864 23.4633 35.3244 25.7027 33.6927 28.1694C32.8105 29.5031 31.5713 30.3588 29.9632 30.9725Z" fill="white"/>
<path d="M27.5762 18.3009C27.588 16.7164 28.8361 15.489 30.391 15.5303C31.884 15.5687 33.0849 16.802 33.0938 18.3098C33.1026 19.8795 31.8604 21.1128 30.2878 21.0951C28.7358 21.0803 27.5644 19.8736 27.5762 18.3009Z" fill="white"/>
</g>
<defs>
<clipPath id="clip0_1_21424">
<rect width="139.67" height="45" fill="white"/>
</clipPath>
</defs>
</svg>
